<svg xmlns="http://www.w3.org/2000/svg" version="1.1" width="1630.7mm" height="824.7mm" viewBox = " 0 0 5778.075617 2922.167757" >
<!-- Front--> 
<g transform="translate(22.5000185, 22.5000185) " > 
<polygon style="stroke:#000000; fill:none; stroke-width:0.90000074" points="0, 0 108.9567825, 0 108.9567825, 10.62993 217.913565, 10.62993 217.913565, 0 292.323075, 0 292.323075, 10.62993 366.732585, 10.62993 366.732585, 0 441.142095, 0 441.142095, 10.62993 515.551605, 10.62993 515.551605, 0 589.9611150000001, 0 589.9611150000001, 10.62993 664.370625, 10.62993 664.370625, 0 738.780135, 0 738.780135, 10.62993 813.1896449999999, 10.62993 813.1896449999999, 0 887.5991549999999, 0 887.5991549999999, 10.62993 962.0086650000001, 10.62993 962.0086650000001, 0 1036.418175, 0 1036.418175, 10.62993 1110.827685, 10.62993 1110.827685, 0 1185.237195, 0 1185.237195, 10.62993 1259.646705, 10.62993 1259.646705, 0 1334.056215, 0 1334.056215, 10.62993 1408.465725, 10.62993 1408.465725, 0 1482.875235, 0 1482.875235, 10.62993 1557.284745, 10.62993 1557.284745, 0 1631.694255, 0 1631.694255, 10.62993 1706.103765, 10.62993 1706.103765, 0 1780.513275, 0 1780.513275, 10.62993 1854.922785, 10.62993 1854.922785, 0 1929.332295, 0 1929.332295, 10.62993 2038.2890774999998, 10.62993 2038.2890774999998, 0 2147.24586, 0 2147.24586, 117.8150575 2136.61593, 117.8150575 2136.61593, 235.630115 2147.24586, 235.630115 2147.24586, 310.039625 2136.61593, 310.039625 2136.61593, 384.44913499999996 2147.24586, 384.44913499999996 2147.24586, 458.85864499999997 2136.61593, 458.85864499999997 2136.61593, 533.268155 2147.24586, 533.268155 2147.24586, 607.6776649999999 2136.61593, 607.6776649999999 2136.61593, 682.0871749999999 2147.24586, 682.0871749999999 2147.24586, 756.4966850000001 2136.61593, 756.4966850000001 2136.61593, 830.906195 2147.24586, 830.906195 2147.24586, 905.315705 2136.61593, 905.315705 2136.61593, 979.7252149999999 2147.24586, 979.7252149999999 2147.24586, 1054.134725 2136.61593, 1054.134725 2136.61593, 1128.5442349999998 2147.24586, 1128.5442349999998 2147.24586, 1202.953745 2136.61593, 1202.953745 2136.61593, 1320.7688025 2147.24586, 1320.7688025 2147.24586, 1438.58386 2038.2890774999998, 1438.58386 2038.2890774999998, 1427.95393 1929.332295, 1427.95393 1929.332295, 1438.58386 1854.922785, 1438.58386 1854.922785, 1427.95393 1780.513275, 1427.95393 1780.513275, 1438.58386 1706.103765, 1438.58386 1706.103765, 1427.95393 1631.694255, 1427.95393 1631.694255, 1438.58386 1557.284745, 1438.58386 1557.284745, 1427.95393 1482.875235, 1427.95393 1482.875235, 1438.58386 1408.465725, 1438.58386 1408.465725, 1427.95393 1334.056215, 1427.95393 1334.056215, 1438.58386 1259.646705, 1438.58386 1259.646705, 1427.95393 1185.237195, 1427.95393 1185.237195, 1438.58386 1110.827685, 1438.58386 1110.827685, 1427.95393 1036.418175, 1427.95393 1036.418175, 1438.58386 962.0086650000001, 1438.58386 962.0086650000001, 1427.95393 887.5991549999999, 1427.95393 887.5991549999999, 1438.58386 813.1896449999999, 1438.58386 813.1896449999999, 1427.95393 738.780135, 1427.95393 738.780135, 1438.58386 664.370625, 1438.58386 664.370625, 1427.95393 589.9611150000001, 1427.95393 589.9611150000001, 1438.58386 515.551605, 1438.58386 515.551605, 1427.95393 441.142095, 1427.95393 441.142095, 1438.58386 366.732585, 1438.58386 366.732585, 1427.95393 292.323075, 1427.95393 292.323075, 1438.58386 217.913565, 1438.58386 217.913565, 1427.95393 108.9567825, 1427.95393 108.9567825, 1438.58386 0, 1438.58386 0, 1320.7688025 10.62993, 1320.7688025 10.62993, 1202.953745 0, 1202.953745 0, 1128.5442349999998 10.62993, 1128.5442349999998 10.62993, 1054.134725 0, 1054.134725 0, 979.7252149999999 10.62993, 979.7252149999999 10.62993, 905.315705 0, 905.315705 0, 830.906195 10.62993, 830.906195 10.62993, 756.4966850000001 0, 756.4966850000001 0, 682.0871749999999 10.62993, 682.0871749999999 10.62993, 607.6776649999999 0, 607.6776649999999 0, 533.268155 10.62993, 533.268155 10.62993, 458.85864499999997 0, 458.85864499999997 0, 384.44913499999996 10.62993, 384.44913499999996 10.62993, 310.039625 0, 310.039625 0, 235.630115 10.62993, 235.630115 10.62993, 117.8150575 0, 117.8150575 "/> 
 <rect x="177.1655" y="177.1655" width="1771.655" height="1062.993" rx="22.5000185" ry="22.5000185" style="stroke:#000000;stroke-width:0.90000074;fill:none" /> 
</g>
<!-- Back--> 
<g transform="translate(2169.7458785, 22.5000185) " > 
<polygon style="stroke:#000000; fill:none; stroke-width:0.90000074" points="0, 0 108.9567825, 0 108.9567825, 10.62993 217.913565, 10.62993 217.913565, 0 292.323075, 0 292.323075, 10.62993 366.732585, 10.62993 366.732585, 0 441.142095, 0 441.142095, 10.62993 515.551605, 10.62993 515.551605, 0 589.9611150000001, 0 589.9611150000001, 10.62993 664.370625, 10.62993 664.370625, 0 738.780135, 0 738.780135, 10.62993 813.1896449999999, 10.62993 813.1896449999999, 0 887.5991549999999, 0 887.5991549999999, 10.62993 962.0086650000001, 10.62993 962.0086650000001, 0 1036.418175, 0 1036.418175, 10.62993 1110.827685, 10.62993 1110.827685, 0 1185.237195, 0 1185.237195, 10.62993 1259.646705, 10.62993 1259.646705, 0 1334.056215, 0 1334.056215, 10.62993 1408.465725, 10.62993 1408.465725, 0 1482.875235, 0 1482.875235, 10.62993 1557.284745, 10.62993 1557.284745, 0 1631.694255, 0 1631.694255, 10.62993 1706.103765, 10.62993 1706.103765, 0 1780.513275, 0 1780.513275, 10.62993 1854.922785, 10.62993 1854.922785, 0 1929.332295, 0 1929.332295, 10.62993 2038.2890774999998, 10.62993 2038.2890774999998, 0 2147.24586, 0 2147.24586, 117.8150575 2136.61593, 117.8150575 2136.61593, 235.630115 2147.24586, 235.630115 2147.24586, 310.039625 2136.61593, 310.039625 2136.61593, 384.44913499999996 2147.24586, 384.44913499999996 2147.24586, 458.85864499999997 2136.61593, 458.85864499999997 2136.61593, 533.268155 2147.24586, 533.268155 2147.24586, 607.6776649999999 2136.61593, 607.6776649999999 2136.61593, 682.0871749999999 2147.24586, 682.0871749999999 2147.24586, 756.4966850000001 2136.61593, 756.4966850000001 2136.61593, 830.906195 2147.24586, 830.906195 2147.24586, 905.315705 2136.61593, 905.315705 2136.61593, 979.7252149999999 2147.24586, 979.7252149999999 2147.24586, 1054.134725 2136.61593, 1054.134725 2136.61593, 1128.5442349999998 2147.24586, 1128.5442349999998 2147.24586, 1202.953745 2136.61593, 1202.953745 2136.61593, 1320.7688025 2147.24586, 1320.7688025 2147.24586, 1438.58386 2038.2890774999998, 1438.58386 2038.2890774999998, 1427.95393 1929.332295, 1427.95393 1929.332295, 1438.58386 1854.922785, 1438.58386 1854.922785, 1427.95393 1780.513275, 1427.95393 1780.513275, 1438.58386 1706.103765, 1438.58386 1706.103765, 1427.95393 1631.694255, 1427.95393 1631.694255, 1438.58386 1557.284745, 1438.58386 1557.284745, 1427.95393 1482.875235, 1427.95393 1482.875235, 1438.58386 1408.465725, 1438.58386 1408.465725, 1427.95393 1334.056215, 1427.95393 1334.056215, 1438.58386 1259.646705, 1438.58386 1259.646705, 1427.95393 1185.237195, 1427.95393 1185.237195, 1438.58386 1110.827685, 1438.58386 1110.827685, 1427.95393 1036.418175, 1427.95393 1036.418175, 1438.58386 962.0086650000001, 1438.58386 962.0086650000001, 1427.95393 887.5991549999999, 1427.95393 887.5991549999999, 1438.58386 813.1896449999999, 1438.58386 813.1896449999999, 1427.95393 738.780135, 1427.95393 738.780135, 1438.58386 664.370625, 1438.58386 664.370625, 1427.95393 589.9611150000001, 1427.95393 589.9611150000001, 1438.58386 515.551605, 1438.58386 515.551605, 1427.95393 441.142095, 1427.95393 441.142095, 1438.58386 366.732585, 1438.58386 366.732585, 1427.95393 292.323075, 1427.95393 292.323075, 1438.58386 217.913565, 1438.58386 217.913565, 1427.95393 108.9567825, 1427.95393 108.9567825, 1438.58386 0, 1438.58386 0, 1320.7688025 10.62993, 1320.7688025 10.62993, 1202.953745 0, 1202.953745 0, 1128.5442349999998 10.62993, 1128.5442349999998 10.62993, 1054.134725 0, 1054.134725 0, 979.7252149999999 10.62993, 979.7252149999999 10.62993, 905.315705 0, 905.315705 0, 830.906195 10.62993, 830.906195 10.62993, 756.4966850000001 0, 756.4966850000001 0, 682.0871749999999 10.62993, 682.0871749999999 10.62993, 607.6776649999999 0, 607.6776649999999 0, 533.268155 10.62993, 533.268155 10.62993, 458.85864499999997 0, 458.85864499999997 0, 384.44913499999996 10.62993, 384.44913499999996 10.62993, 310.039625 0, 310.039625 0, 235.630115 10.62993, 235.630115 10.62993, 117.8150575 0, 117.8150575 "/> 
</g>
<!-- Left--> 
<g transform="translate(4316.9917385, 22.5000185) " > 
<polygon style="stroke:#000000; fill:none; stroke-width:0.90000074" points="10.62993, 0 117.8150575, 0 117.8150575, 10.62993 235.630115, 10.62993 235.630115, 0 310.039625, 0 310.039625, 10.62993 384.44913499999996, 10.62993 384.44913499999996, 0 458.85864499999997, 0 458.85864499999997, 10.62993 533.268155, 10.62993 533.268155, 0 607.6776649999999, 0 607.6776649999999, 10.62993 682.0871749999999, 10.62993 682.0871749999999, 0 756.4966850000001, 0 756.4966850000001, 10.62993 830.906195, 10.62993 830.906195, 0 905.315705, 0 905.315705, 10.62993 979.7252149999999, 10.62993 979.7252149999999, 0 1054.134725, 0 1054.134725, 10.62993 1128.5442349999998, 10.62993 1128.5442349999998, 0 1202.953745, 0 1202.953745, 10.62993 1320.7688025, 10.62993 1320.7688025, 0 1427.95393, 0 1427.95393, 117.8150575 1438.58386, 117.8150575 1438.58386, 235.630115 1427.95393, 235.630115 1427.95393, 310.039625 1438.58386, 310.039625 1438.58386, 384.44913499999996 1427.95393, 384.44913499999996 1427.95393, 458.85864499999997 1438.58386, 458.85864499999997 1438.58386, 533.268155 1427.95393, 533.268155 1427.95393, 607.6776649999999 1438.58386, 607.6776649999999 1438.58386, 682.0871749999999 1427.95393, 682.0871749999999 1427.95393, 756.4966850000001 1438.58386, 756.4966850000001 1438.58386, 830.906195 1427.95393, 830.906195 1427.95393, 905.315705 1438.58386, 905.315705 1438.58386, 979.7252149999999 1427.95393, 979.7252149999999 1427.95393, 1054.134725 1438.58386, 1054.134725 1438.58386, 1128.5442349999998 1427.95393, 1128.5442349999998 1427.95393, 1202.953745 1438.58386, 1202.953745 1438.58386, 1320.7688025 1427.95393, 1320.7688025 1427.95393, 1438.58386 1320.7688025, 1438.58386 1320.7688025, 1427.95393 1202.953745, 1427.95393 1202.953745, 1438.58386 1128.5442349999998, 1438.58386 1128.5442349999998, 1427.95393 1054.134725, 1427.95393 1054.134725, 1438.58386 979.7252149999999, 1438.58386 979.7252149999999, 1427.95393 905.315705, 1427.95393 905.315705, 1438.58386 830.906195, 1438.58386 830.906195, 1427.95393 756.4966850000001, 1427.95393 756.4966850000001, 1438.58386 682.0871749999999, 1438.58386 682.0871749999999, 1427.95393 607.6776649999999, 1427.95393 607.6776649999999, 1438.58386 533.268155, 1438.58386 533.268155, 1427.95393 458.85864499999997, 1427.95393 458.85864499999997, 1438.58386 384.44913499999996, 1438.58386 384.44913499999996, 1427.95393 310.039625, 1427.95393 310.039625, 1438.58386 235.630115, 1438.58386 235.630115, 1427.95393 117.8150575, 1427.95393 117.8150575, 1438.58386 10.62993, 1438.58386 10.62993, 1320.7688025 0, 1320.7688025 0, 1202.953745 10.62993, 1202.953745 10.62993, 1128.5442349999998 0, 1128.5442349999998 0, 1054.134725 10.62993, 1054.134725 10.62993, 979.7252149999999 0, 979.7252149999999 0, 905.315705 10.62993, 905.315705 10.62993, 830.906195 0, 830.906195 0, 756.4966850000001 10.62993, 756.4966850000001 10.62993, 682.0871749999999 0, 682.0871749999999 0, 607.6776649999999 10.62993, 607.6776649999999 10.62993, 533.268155 0, 533.268155 0, 458.85864499999997 10.62993, 458.85864499999997 10.62993, 384.44913499999996 0, 384.44913499999996 0, 310.039625 10.62993, 310.039625 10.62993, 235.630115 0, 235.630115 0, 117.8150575 10.62993, 117.8150575 "/> 
 <rect x="177.1655" y="177.1655" width="1062.993" height="1062.993" rx="22.5000185" ry="22.5000185" style="stroke:#000000;stroke-width:0.90000074;fill:none" /> 
</g>
<!-- Right--> 
<g transform="translate(4316.9917385, 1461.0838785) " > 
<polygon style="stroke:#000000; fill:none; stroke-width:0.90000074" points="10.62993, 0 117.8150575, 0 117.8150575, 10.62993 235.630115, 10.62993 235.630115, 0 310.039625, 0 310.039625, 10.62993 384.44913499999996, 10.62993 384.44913499999996, 0 458.85864499999997, 0 458.85864499999997, 10.62993 533.268155, 10.62993 533.268155, 0 607.6776649999999, 0 607.6776649999999, 10.62993 682.0871749999999, 10.62993 682.0871749999999, 0 756.4966850000001, 0 756.4966850000001, 10.62993 830.906195, 10.62993 830.906195, 0 905.315705, 0 905.315705, 10.62993 979.7252149999999, 10.62993 979.7252149999999, 0 1054.134725, 0 1054.134725, 10.62993 1128.5442349999998, 10.62993 1128.5442349999998, 0 1202.953745, 0 1202.953745, 10.62993 1320.7688025, 10.62993 1320.7688025, 0 1427.95393, 0 1427.95393, 117.8150575 1438.58386, 117.8150575 1438.58386, 235.630115 1427.95393, 235.630115 1427.95393, 310.039625 1438.58386, 310.039625 1438.58386, 384.44913499999996 1427.95393, 384.44913499999996 1427.95393, 458.85864499999997 1438.58386, 458.85864499999997 1438.58386, 533.268155 1427.95393, 533.268155 1427.95393, 607.6776649999999 1438.58386, 607.6776649999999 1438.58386, 682.0871749999999 1427.95393, 682.0871749999999 1427.95393, 756.4966850000001 1438.58386, 756.4966850000001 1438.58386, 830.906195 1427.95393, 830.906195 1427.95393, 905.315705 1438.58386, 905.315705 1438.58386, 979.7252149999999 1427.95393, 979.7252149999999 1427.95393, 1054.134725 1438.58386, 1054.134725 1438.58386, 1128.5442349999998 1427.95393, 1128.5442349999998 1427.95393, 1202.953745 1438.58386, 1202.953745 1438.58386, 1320.7688025 1427.95393, 1320.7688025 1427.95393, 1438.58386 1320.7688025, 1438.58386 1320.7688025, 1427.95393 1202.953745, 1427.95393 1202.953745, 1438.58386 1128.5442349999998, 1438.58386 1128.5442349999998, 1427.95393 1054.134725, 1427.95393 1054.134725, 1438.58386 979.7252149999999, 1438.58386 979.7252149999999, 1427.95393 905.315705, 1427.95393 905.315705, 1438.58386 830.906195, 1438.58386 830.906195, 1427.95393 756.4966850000001, 1427.95393 756.4966850000001, 1438.58386 682.0871749999999, 1438.58386 682.0871749999999, 1427.95393 607.6776649999999, 1427.95393 607.6776649999999, 1438.58386 533.268155, 1438.58386 533.268155, 1427.95393 458.85864499999997, 1427.95393 458.85864499999997, 1438.58386 384.44913499999996, 1438.58386 384.44913499999996, 1427.95393 310.039625, 1427.95393 310.039625, 1438.58386 235.630115, 1438.58386 235.630115, 1427.95393 117.8150575, 1427.95393 117.8150575, 1438.58386 10.62993, 1438.58386 10.62993, 1320.7688025 0, 1320.7688025 0, 1202.953745 10.62993, 1202.953745 10.62993, 1128.5442349999998 0, 1128.5442349999998 0, 1054.134725 10.62993, 1054.134725 10.62993, 979.7252149999999 0, 979.7252149999999 0, 905.315705 10.62993, 905.315705 10.62993, 830.906195 0, 830.906195 0, 756.4966850000001 10.62993, 756.4966850000001 10.62993, 682.0871749999999 0, 682.0871749999999 0, 607.6776649999999 10.62993, 607.6776649999999 10.62993, 533.268155 0, 533.268155 0, 458.85864499999997 10.62993, 458.85864499999997 10.62993, 384.44913499999996 0, 384.44913499999996 0, 310.039625 10.62993, 310.039625 10.62993, 235.630115 0, 235.630115 0, 117.8150575 10.62993, 117.8150575 "/> 
 <rect x="177.1655" y="177.1655" width="1062.993" height="1062.993" rx="22.5000185" ry="22.5000185" style="stroke:#000000;stroke-width:0.90000074;fill:none" /> 
</g>
<!-- Top--> 
<g transform="translate(22.5000185, 1461.0838785) " > 
<polygon style="stroke:#000000; fill:none; stroke-width:0.90000074" points="10.62993, 10.62993 108.9567825, 10.62993 108.9567825, 0 217.913565, 0 217.913565, 10.62993 292.323075, 10.62993 292.323075, 0 366.732585, 0 366.732585, 10.62993 441.142095, 10.62993 441.142095, 0 515.551605, 0 515.551605, 10.62993 589.9611150000001, 10.62993 589.9611150000001, 0 664.370625, 0 664.370625, 10.62993 738.780135, 10.62993 738.780135, 0 813.1896449999999, 0 813.1896449999999, 10.62993 887.5991549999999, 10.62993 887.5991549999999, 0 962.0086650000001, 0 962.0086650000001, 10.62993 1036.418175, 10.62993 1036.418175, 0 1110.827685, 0 1110.827685, 10.62993 1185.237195, 10.62993 1185.237195, 0 1259.646705, 0 1259.646705, 10.62993 1334.056215, 10.62993 1334.056215, 0 1408.465725, 0 1408.465725, 10.62993 1482.875235, 10.62993 1482.875235, 0 1557.284745, 0 1557.284745, 10.62993 1631.694255, 10.62993 1631.694255, 0 1706.103765, 0 1706.103765, 10.62993 1780.513275, 10.62993 1780.513275, 0 1854.922785, 0 1854.922785, 10.62993 1929.332295, 10.62993 1929.332295, 0 2038.2890774999998, 0 2038.2890774999998, 10.62993 2136.61593, 10.62993 2136.61593, 117.8150575 2147.24586, 117.8150575 2147.24586, 235.630115 2136.61593, 235.630115 2136.61593, 310.039625 2147.24586, 310.039625 2147.24586, 384.44913499999996 2136.61593, 384.44913499999996 2136.61593, 458.85864499999997 2147.24586, 458.85864499999997 2147.24586, 533.268155 2136.61593, 533.268155 2136.61593, 607.6776649999999 2147.24586, 607.6776649999999 2147.24586, 682.0871749999999 2136.61593, 682.0871749999999 2136.61593, 756.4966850000001 2147.24586, 756.4966850000001 2147.24586, 830.906195 2136.61593, 830.906195 2136.61593, 905.315705 2147.24586, 905.315705 2147.24586, 979.7252149999999 2136.61593, 979.7252149999999 2136.61593, 1054.134725 2147.24586, 1054.134725 2147.24586, 1128.5442349999998 2136.61593, 1128.5442349999998 2136.61593, 1202.953745 2147.24586, 1202.953745 2147.24586, 1320.7688025 2136.61593, 1320.7688025 2136.61593, 1427.95393 2038.2890774999998, 1427.95393 2038.2890774999998, 1438.58386 1929.332295, 1438.58386 1929.332295, 1427.95393 1854.922785, 1427.95393 1854.922785, 1438.58386 1780.513275, 1438.58386 1780.513275, 1427.95393 1706.103765, 1427.95393 1706.103765, 1438.58386 1631.694255, 1438.58386 1631.694255, 1427.95393 1557.284745, 1427.95393 1557.284745, 1438.58386 1482.875235, 1438.58386 1482.875235, 1427.95393 1408.465725, 1427.95393 1408.465725, 1438.58386 1334.056215, 1438.58386 1334.056215, 1427.95393 1259.646705, 1427.95393 1259.646705, 1438.58386 1185.237195, 1438.58386 1185.237195, 1427.95393 1110.827685, 1427.95393 1110.827685, 1438.58386 1036.418175, 1438.58386 1036.418175, 1427.95393 962.0086650000001, 1427.95393 962.0086650000001, 1438.58386 887.5991549999999, 1438.58386 887.5991549999999, 1427.95393 813.1896449999999, 1427.95393 813.1896449999999, 1438.58386 738.780135, 1438.58386 738.780135, 1427.95393 664.370625, 1427.95393 664.370625, 1438.58386 589.9611150000001, 1438.58386 589.9611150000001, 1427.95393 515.551605, 1427.95393 515.551605, 1438.58386 441.142095, 1438.58386 441.142095, 1427.95393 366.732585, 1427.95393 366.732585, 1438.58386 292.323075, 1438.58386 292.323075, 1427.95393 217.913565, 1427.95393 217.913565, 1438.58386 108.9567825, 1438.58386 108.9567825, 1427.95393 10.62993, 1427.95393 10.62993, 1320.7688025 0, 1320.7688025 0, 1202.953745 10.62993, 1202.953745 10.62993, 1128.5442349999998 0, 1128.5442349999998 0, 1054.134725 10.62993, 1054.134725 10.62993, 979.7252149999999 0, 979.7252149999999 0, 905.315705 10.62993, 905.315705 10.62993, 830.906195 0, 830.906195 0, 756.4966850000001 10.62993, 756.4966850000001 10.62993, 682.0871749999999 0, 682.0871749999999 0, 607.6776649999999 10.62993, 607.6776649999999 10.62993, 533.268155 0, 533.268155 0, 458.85864499999997 10.62993, 458.85864499999997 10.62993, 384.44913499999996 0, 384.44913499999996 0, 310.039625 10.62993, 310.039625 10.62993, 235.630115 0, 235.630115 0, 117.8150575 10.62993, 117.8150575 "/> 
</g>
<!-- Bottom--> 
<g transform="translate(2169.7458785, 1461.0838785) " > 
<polygon style="stroke:#000000; fill:none; stroke-width:0.90000074" points="10.62993, 10.62993 108.9567825, 10.62993 108.9567825, 0 217.913565, 0 217.913565, 10.62993 292.323075, 10.62993 292.323075, 0 366.732585, 0 366.732585, 10.62993 441.142095, 10.62993 441.142095, 0 515.551605, 0 515.551605, 10.62993 589.9611150000001, 10.62993 589.9611150000001, 0 664.370625, 0 664.370625, 10.62993 738.780135, 10.62993 738.780135, 0 813.1896449999999, 0 813.1896449999999, 10.62993 887.5991549999999, 10.62993 887.5991549999999, 0 962.0086650000001, 0 962.0086650000001, 10.62993 1036.418175, 10.62993 1036.418175, 0 1110.827685, 0 1110.827685, 10.62993 1185.237195, 10.62993 1185.237195, 0 1259.646705, 0 1259.646705, 10.62993 1334.056215, 10.62993 1334.056215, 0 1408.465725, 0 1408.465725, 10.62993 1482.875235, 10.62993 1482.875235, 0 1557.284745, 0 1557.284745, 10.62993 1631.694255, 10.62993 1631.694255, 0 1706.103765, 0 1706.103765, 10.62993 1780.513275, 10.62993 1780.513275, 0 1854.922785, 0 1854.922785, 10.62993 1929.332295, 10.62993 1929.332295, 0 2038.2890774999998, 0 2038.2890774999998, 10.62993 2136.61593, 10.62993 2136.61593, 117.8150575 2147.24586, 117.8150575 2147.24586, 235.630115 2136.61593, 235.630115 2136.61593, 310.039625 2147.24586, 310.039625 2147.24586, 384.44913499999996 2136.61593, 384.44913499999996 2136.61593, 458.85864499999997 2147.24586, 458.85864499999997 2147.24586, 533.268155 2136.61593, 533.268155 2136.61593, 607.6776649999999 2147.24586, 607.6776649999999 2147.24586, 682.0871749999999 2136.61593, 682.0871749999999 2136.61593, 756.4966850000001 2147.24586, 756.4966850000001 2147.24586, 830.906195 2136.61593, 830.906195 2136.61593, 905.315705 2147.24586, 905.315705 2147.24586, 979.7252149999999 2136.61593, 979.7252149999999 2136.61593, 1054.134725 2147.24586, 1054.134725 2147.24586, 1128.5442349999998 2136.61593, 1128.5442349999998 2136.61593, 1202.953745 2147.24586, 1202.953745 2147.24586, 1320.7688025 2136.61593, 1320.7688025 2136.61593, 1427.95393 2038.2890774999998, 1427.95393 2038.2890774999998, 1438.58386 1929.332295, 1438.58386 1929.332295, 1427.95393 1854.922785, 1427.95393 1854.922785, 1438.58386 1780.513275, 1438.58386 1780.513275, 1427.95393 1706.103765, 1427.95393 1706.103765, 1438.58386 1631.694255, 1438.58386 1631.694255, 1427.95393 1557.284745, 1427.95393 1557.284745, 1438.58386 1482.875235, 1438.58386 1482.875235, 1427.95393 1408.465725, 1427.95393 1408.465725, 1438.58386 1334.056215, 1438.58386 1334.056215, 1427.95393 1259.646705, 1427.95393 1259.646705, 1438.58386 1185.237195, 1438.58386 1185.237195, 1427.95393 1110.827685, 1427.95393 1110.827685, 1438.58386 1036.418175, 1438.58386 1036.418175, 1427.95393 962.0086650000001, 1427.95393 962.0086650000001, 1438.58386 887.5991549999999, 1438.58386 887.5991549999999, 1427.95393 813.1896449999999, 1427.95393 813.1896449999999, 1438.58386 738.780135, 1438.58386 738.780135, 1427.95393 664.370625, 1427.95393 664.370625, 1438.58386 589.9611150000001, 1438.58386 589.9611150000001, 1427.95393 515.551605, 1427.95393 515.551605, 1438.58386 441.142095, 1438.58386 441.142095, 1427.95393 366.732585, 1427.95393 366.732585, 1438.58386 292.323075, 1438.58386 292.323075, 1427.95393 217.913565, 1427.95393 217.913565, 1438.58386 108.9567825, 1438.58386 108.9567825, 1427.95393 10.62993, 1427.95393 10.62993, 1320.7688025 0, 1320.7688025 0, 1202.953745 10.62993, 1202.953745 10.62993, 1128.5442349999998 0, 1128.5442349999998 0, 1054.134725 10.62993, 1054.134725 10.62993, 979.7252149999999 0, 979.7252149999999 0, 905.315705 10.62993, 905.315705 10.62993, 830.906195 0, 830.906195 0, 756.4966850000001 10.62993, 756.4966850000001 10.62993, 682.0871749999999 0, 682.0871749999999 0, 607.6776649999999 10.62993, 607.6776649999999 10.62993, 533.268155 0, 533.268155 0, 458.85864499999997 10.62993, 458.85864499999997 10.62993, 384.44913499999996 0, 384.44913499999996 0, 310.039625 10.62993, 310.039625 10.62993, 235.630115 0, 235.630115 0, 117.8150575 10.62993, 117.8150575 "/> 
</g></svg>